<svg width="1920" height="313" viewBox="0 0 1920 313" fill="none" xmlns="http://www.w3.org/2000/svg">
<path d="M-7.5 9.15527C22 35.6553 477.2 187.155 717.5 187.155C1037.5 187.155 1327.5 81.6553 1476 81.6553C1594.8 81.6553 1826.5 151.989 1927.5 187.155" stroke="black" stroke-width="1.5"/>
<path d="M656.46 57.0541C656.986 54.7042 656.752 52.2479 655.791 50.0398C653.046 43.5956 645.538 27.6357 638.316 27.1356C629.258 26.5085 632.116 34.4848 635.33 36.3896C637.124 37.5186 639.417 37.4718 641.163 36.2705C641.163 36.2705 649.839 46.8114 648.902 50.0802C648.902 50.0802 643.902 50.0802 645.568 54.8422C647.027 59.0089 654.592 65.0897 656.46 57.0541Z" fill="#DC911B"/>
<path d="M639.32 124.857C639.32 124.857 662.632 205.304 631.029 232.088C599.426 258.873 565.677 271.194 565.677 271.194L562.463 283.515L546.392 244.409L591.39 192.983L610.673 114.236" fill="#E2E2E2"/>
<path d="M607.856 167.27C603.827 167.27 599.975 169.084 596.434 172.385L591.39 192.983L580.467 205.467C577.873 216.408 576.391 229.055 576.391 242.531C576.38 250.353 576.899 258.168 577.943 265.92C590.601 259.966 611.235 248.864 631.029 232.088C633.879 229.647 636.336 226.783 638.316 223.596C634.805 191.196 622.499 167.27 607.856 167.27Z" fill="black"/>
<path d="M629.79 112.795C629.79 112.795 637 230.47 616.637 286.185L620.89 292.434H584.672C584.672 292.434 580.715 142.758 580.715 110.453L629.79 112.795Z" fill="#EDEEEF"/>
<path d="M621.375 21.749V37.0417L602.43 41.6981V15.8904L621.375 11.2339V21.749Z" fill="#EDEEEF"/>
<path d="M610.673 27.0395C610.953 27.0395 611.179 26.8127 611.179 26.5329C611.179 26.2532 610.953 26.0264 610.673 26.0264C610.393 26.0264 610.166 26.2532 610.166 26.5329C610.166 26.8127 610.393 27.0395 610.673 27.0395Z" fill="black"/>
<path d="M618.453 27.0395C618.733 27.0395 618.96 26.8127 618.96 26.5329C618.96 26.2532 618.733 26.0264 618.453 26.0264C618.173 26.0264 617.946 26.2532 617.946 26.5329C617.946 26.8127 618.173 27.0395 618.453 27.0395Z" fill="black"/>
<path d="M616.171 29.5547V21.7485H620.081" stroke="black" stroke-width="1.5" stroke-linecap="round" stroke-linejoin="round"/>
<path d="M609.719 21.7484H613.629" stroke="black" stroke-width="1.5" stroke-linecap="round" stroke-linejoin="round"/>
<path d="M603.678 25.7484V28.4593C602.215 28.4593 601.03 27.2739 601.03 25.8116C601.03 25.7303 601.033 25.65 601.041 25.5706C601.189 23.9264 603.678 24.0976 603.678 25.7484Z" fill="#EDEEEF"/>
<path d="M603.678 28.4592C602.215 28.4592 601.03 27.2738 601.03 25.8115" stroke="black" stroke-width="1.5" stroke-linecap="round" stroke-linejoin="round"/>
<path d="M614.46 31.4791C612.98 31.4791 611.78 30.2793 611.78 28.7993" stroke="#DC911B" stroke-width="1.5" stroke-linecap="round" stroke-linejoin="round"/>
<path d="M621.375 37.0415L602.43 41.6978" stroke="black" stroke-width="1.5" stroke-linecap="round" stroke-linejoin="round"/>
<path d="M616.171 29.561L614.46 29.9814" stroke="black" stroke-width="1.5" stroke-linecap="round" stroke-linejoin="round"/>
<path d="M580.715 69.0832V110.453L639.32 124.857V78.7826C639.32 62.4455 628.167 48.2191 612.302 44.3198H612.302C604.694 42.4498 596.648 44.181 590.483 49.0148C584.317 53.8487 580.715 61.2485 580.715 69.0832V69.0832Z" fill="#DC911B"/>
<path d="M629.79 112.795C629.79 112.795 637 230.47 616.637 286.185" stroke="black" stroke-width="1.5" stroke-linecap="round" stroke-linejoin="round"/>
<path d="M604.787 23.6807C604.787 23.6807 608 23.5022 616.171 17.52V19.8414C616.171 19.8414 620.859 18.5021 622.198 16.1807" stroke="black" stroke-width="1.5" stroke-linecap="round" stroke-linejoin="round"/>
<path d="M622.626 15.2719C622.626 15.2719 632.734 1.89499 604.787 11.2339L607.823 7.92188C607.823 7.92188 592.912 12.749 601.662 24.4204" stroke="black" stroke-width="1.5" stroke-linecap="round" stroke-linejoin="round"/>
<path d="M621.097 25.2583C621.097 25.2583 624.796 20.2904 623.311 14.2104" stroke="black" stroke-width="1.5" stroke-linecap="round" stroke-linejoin="round"/>
<path d="M586.211 53.2617C586.211 53.2617 549.734 82.6993 555.448 120.2C561.163 157.7 598.91 160.2 598.91 160.2L604.788 149.843L580.715 110.453L603.678 86.985" stroke="black" stroke-width="1.5" stroke-linecap="round" stroke-linejoin="round"/>
<path d="M598.91 160.2L610.969 138.95" stroke="black" stroke-width="1.5" stroke-linecap="round" stroke-linejoin="round"/>
<path d="M628.492 53.2617C628.492 53.2617 640.687 66.0324 646.64 80.3183" stroke="black" stroke-width="1.5" stroke-linecap="round" stroke-linejoin="round"/>
<path d="M638.316 109.605C638.316 109.605 642.83 119.129 655.211 122.224C667.506 125.297 680.505 70.3784 652.941 35.1059C652.351 34.3358 651.524 33.7808 650.588 33.5266C648.887 33.0856 646.695 33.711 647.601 40.5563C647.601 40.5563 643.782 39.2043 645.687 43.5708C647.592 47.9373 651.131 64.8765 644.48 75.6928" stroke="black" stroke-width="1.5" stroke-linecap="round" stroke-linejoin="round"/>
<rect x="628" y="81.1553" width="617" height="197" fill="#FFE0B0"/>
<path d="M1199.92 121.501C1199.92 121.501 1132 247.595 1277.55 256.221L1284.55 262.15V220.642L1235.66 205.548L1234.22 105.281" fill="#E2E2E2"/>
<path d="M1235.36 184.755C1223.72 189.585 1214.95 210.697 1214.95 236.012C1214.95 237.283 1214.98 238.544 1215.02 239.792C1226.87 247.043 1242.87 252.464 1264.18 255.032C1265.35 248.76 1265.93 242.392 1265.91 236.012C1265.94 228.669 1265.16 221.344 1263.59 214.171L1235.66 205.548L1235.36 184.755Z" fill="black"/>
<path d="M1208.99 120.619L1251.07 117.736L1258.72 120.852L1262.32 304.63H1223.23L1227.37 297.224L1208.99 120.619Z" fill="#EDEEEF"/>
<path d="M1213.74 32.2373V38.8797C1213.74 44.0159 1217.25 48.4885 1222.24 49.7144L1232.81 52.3124V26.3419L1224.02 24.1817C1221.54 23.5734 1218.93 24.1366 1216.92 25.709C1214.92 27.2815 1213.74 29.6887 1213.74 32.2373V32.2373Z" fill="#EDEEEF"/>
<path d="M1213.74 38.8799C1213.74 44.016 1217.25 48.4886 1222.24 49.7145L1232.81 52.3125" stroke="black" stroke-width="1.5" stroke-linecap="round" stroke-linejoin="round"/>
<path d="M1224.51 37.562C1224.8 37.562 1225.02 37.3337 1225.02 37.0522C1225.02 36.7707 1224.8 36.5425 1224.51 36.5425C1224.23 36.5425 1224 36.7707 1224 37.0522C1224 37.3337 1224.23 37.562 1224.51 37.562Z" fill="black"/>
<path d="M1216.68 37.562C1216.97 37.562 1217.19 37.3337 1217.19 37.0522C1217.19 36.7707 1216.97 36.5425 1216.68 36.5425C1216.4 36.5425 1216.18 36.7707 1216.18 37.0522C1216.18 37.3337 1216.4 37.562 1216.68 37.562Z" fill="black"/>
<path d="M1218.98 40.0927V32.2373H1215.05" stroke="black" stroke-width="1.5" stroke-linecap="round" stroke-linejoin="round"/>
<path d="M1225.47 32.2373H1221.54" stroke="black" stroke-width="1.5" stroke-linecap="round" stroke-linejoin="round"/>
<path d="M1231.55 36.2627V38.9906C1233.02 38.9906 1234.22 37.7977 1234.22 36.3262C1234.22 36.2444 1234.21 36.1636 1234.21 36.0837C1234.06 34.4291 1231.55 34.6014 1231.55 36.2627Z" fill="#EDEEEF"/>
<path d="M1231.55 38.9906C1233.02 38.9906 1234.22 37.7977 1234.22 36.3262" stroke="black" stroke-width="1.5" stroke-linecap="round" stroke-linejoin="round"/>
<path d="M1221.13 41.0107C1221.46 41.3416 1221.91 41.5275 1222.38 41.5275C1222.85 41.5275 1223.3 41.3416 1223.63 41.0107" stroke="#DC911B" stroke-width="1.5" stroke-linecap="round" stroke-linejoin="round"/>
<path d="M1218.98 40.0991L1220.7 40.5222" stroke="black" stroke-width="1.5" stroke-linecap="round" stroke-linejoin="round"/>
<path d="M1199.92 79.8705V121.501L1258.9 135.996V89.631C1258.9 73.1909 1247.67 58.8748 1231.71 54.9509H1231.71C1224.05 53.0691 1215.96 54.8112 1209.75 59.6755C1203.55 64.5399 1199.92 71.9864 1199.92 79.8705V79.8705Z" fill="#DC911B"/>
<path d="M1227.37 297.224L1208.99 120.619" stroke="black" stroke-width="1.5" stroke-linecap="round" stroke-linejoin="round"/>
<path d="M1219.84 48.8223C1219.84 48.8223 1219.84 57.3661 1205.35 56.5967L1202.03 53.278C1202.03 53.278 1203.86 15.4482 1229.6 20.3641C1233.67 21.1412 1237.29 23.5505 1239.26 27.1926C1241.47 31.2561 1241.82 37.1552 1232.89 43.5537" stroke="black" stroke-width="1.5" stroke-linecap="round" stroke-linejoin="round"/>
<path d="M1200.78 54.5737C1200.91 54.5737 1204.1 57.8982 1204.1 57.8982" stroke="#DC911B" stroke-width="1.5" stroke-linecap="round" stroke-linejoin="round"/>
<path d="M1213.74 35.7368C1213.74 35.7368 1222.43 33.5804 1225.02 28.2793C1225.02 28.2793 1227.86 35.62 1231.55 36.2624" stroke="black" stroke-width="1.5" stroke-linecap="round" stroke-linejoin="round"/>
<path d="M1200.15 56.2363C1200.15 56.2363 1190.98 61.404 1192.54 73.983C1193.03 78.154 1195.13 81.9702 1198.38 84.6248C1200.05 86.0293 1202.36 86.3959 1204.39 85.5777C1206.41 84.7595 1207.82 82.8904 1208.04 80.7194C1208.31 78.2715 1208.83 75.7582 1209.79 73.8632C1213.74 66.0762 1201.84 57.8985 1201.84 57.8985" stroke="black" stroke-width="1.5" stroke-linecap="round" stroke-linejoin="round"/>
<path d="M1246.68 62.7344C1246.68 62.7344 1305.51 128.731 1248.37 162.515L1239.02 146.855L1252.32 122.621L1239.02 100.339" stroke="black" stroke-width="1.5" stroke-linecap="round" stroke-linejoin="round"/>
<path d="M1248.37 162.514L1233.79 138.075" stroke="black" stroke-width="1.5" stroke-linecap="round" stroke-linejoin="round"/>
<path d="M1178.05 63.3157C1177.52 60.951 1177.76 58.4793 1178.72 56.2572C1181.49 49.7724 1189.04 33.7118 1196.31 33.2086C1205.42 32.5776 1202.55 40.6041 1199.31 42.5209C1197.51 43.6571 1195.2 43.61 1193.44 42.4011C1193.44 42.4011 1184.71 53.0084 1185.66 56.2979C1185.66 56.2979 1190.69 56.2979 1189.01 61.0898C1187.54 65.2828 1179.93 71.402 1178.05 63.3157Z" fill="#DC911B"/>
<path d="M1185.29 50.2262C1185.29 50.2262 1192.12 44.4524 1185.29 42.4758C1178.47 40.4991 1163.19 61.7036 1165.71 85.0645C1168.22 108.425 1184.9 123.88 1199.92 111.121" stroke="black" stroke-width="1.5" stroke-linecap="round" stroke-linejoin="round"/>
<path d="M1185.54 65.6494C1185.54 65.6494 1186.65 76.0791 1190.11 82.3686L1193.99 79.0321" stroke="black" stroke-width="1.5" stroke-linecap="round" stroke-linejoin="round"/>
</svg>
